{"title":"Sex.After.Kids.2013.1080p.BluRay.H264.AAC-BL4CKP34RL","uid":11652335,"size":2177397180,"categoryP":"video","categoryS":"hd___movies","magnet":"?xt=urn:btih:0cf17bb4f26885d46a8a27794f15d0b339fa8f6f&amp;dn=Sex.After.Kids.2013.1080p.BluRay.H264.AAC-BL4CKP34RL&amp;tr=udp%3A%2F%2Ftracker.openbittorrent.com%3A80&amp;tr=udp%3A%2F%2Fopen.demonii.com%3A1337&amp;tr=udp%3A%2F%2Ftracker.coppersurfer.tk%3A6969&amp;tr=udp%3A%2F%2Fexodus.desync.com%3A6969","seeders":1,"leechers":0,"uploader":"CrAGRG","files":2,"time":1417887174,"description":" &lt;a href=&quot;http://www.imdb.com/title/tt2301147/&quot; rel=&quot;nofollow&quot; target=&quot;_NEW&quot;&gt;http://www.imdb.com/title/tt2301147/&lt;/a&gt;\n\nCover: &lt;a href=&quot;\nhttp://imgur.com/xKw2zeQ&quot; rel=&quot;nofollow&quot; target=&quot;_NEW&quot;&gt;\nhttp://imgur.com/xKw2zeQ&lt;/a&gt;\n\nScreenS:\n &lt;a href=&quot;\nhttp://imgur.com/talMfmz&quot; rel=&quot;nofollow&quot; target=&quot;_NEW&quot;&gt;\nhttp://imgur.com/talMfmz&lt;/a&gt; &lt;a href=&quot;\nhttp://imgur.com/AJZh4mV&quot; rel=&quot;nofollow&quot; target=&quot;_NEW&quot;&gt;\nhttp://imgur.com/AJZh4mV&lt;/a&gt; &lt;a href=&quot;\nhttp://imgur.com/tF0UdJR&quot; rel=&quot;nofollow&quot; target=&quot;_NEW&quot;&gt;\nhttp://imgur.com/tF0UdJR&lt;/a&gt;\n\nVideo\nID                                       : 1\nFormat                                   : AVC\nFormat/Info                              : Advanced Video Codec\nFormat profile                           : &lt;a class=&quot;__cf_email__&quot; href=&quot;/cdn-cgi/l/email-protection&quot; data-cfemail=&quot;5810313f3018146c7669&quot;&gt;[email&amp;#160;protected]&lt;/a&gt;&lt;script cf-hash='f9e31' type=&quot;text/javascript&quot;&gt;\n/* &lt;![CDATA[ */!function(){try{var t=&quot;currentScript&quot;in document?document.currentScript:function(){for(var t=document.getElementsByTagName(&quot;script&quot;),e=t.length;e--;)if(t[e].getAttribute(&quot;cf-hash&quot;))return t[e]}();if(t&amp;&amp;t.previousSibling){var e,r,n,i,c=t.previousSibling,a=c.getAttribute(&quot;data-cfemail&quot;);if(a){for(e=&quot;&quot;,r=parseInt(a.substr(0,2),16),n=2;a.length-n;n+=2)i=parseInt(a.substr(n,2),16)^r,e+=String.fromCharCode(i);e=document.createTextNode(e),c.parentNode.replaceChild(e,c)}}}catch(u){}}();/* ]]&gt; */&lt;/script&gt;\nFormat settings, CABAC                   : Yes\nFormat settings, ReFrames                : 4 frames\nCodec ID                                 : avc1\nCodec ID/Info                            : Advanced Video Coding\nDuration                                 : 1h 46mn\nBit rate                                 : 2 500 Kbps\nWidth                                    : 1 920 pixels\nHeight                                   : 1 080 pixels\nDisplay aspect ratio                     : 16:9\nFrame rate mode                          : Constant\nFrame rate                               : 23.976 fps\nColor space                              : YUV\nChroma subsampling                       : 4:2:0\nBit depth                                : 8 bits\nScan type                                : Progressive\nBits/(Pixel*Frame)                       : 0.050\nStream size                              : 1.86 GiB (92%)\n\nAudio\nID                                       : 2\nFormat                                   : AAC\nFormat/Info                              : Advanced Audio Codec\nFormat profile                           : LC\nCodec ID                                 : 40\nDuration                                 : 1h 46mn\nDuration_LastFrame                       : 32ms\nBit rate mode                            : Constant\nBit rate                                 : 224 Kbps\nChannel(s)                               : 2 channels\nChannel(s)_Original                      : 6 channels\nChannel positions                        : Front: L C R, Side: L R, LFE\nSampling rate                            : 48.0 KHz\nCompression mode                         : Lossy\nStream size                              : 170 MiB (8%)\nLanguage                                 : English\nEncoded date                             : UTC 1904-01-01 00:00:00\nTagged date                              : UTC 1904-01-01 00:00:00","torrent":{"xt":"urn:btih:0cf17bb4f26885d46a8a27794f15d0b339fa8f6f","amp;dn":"Sex.After.Kids.2013.1080p.BluRay.H264.AAC-BL4CKP34RL","amp;tr":["udp%3A%2F%2Ftracker.openbittorrent.com%3A80","udp%3A%2F%2Fopen.demonii.com%3A1337","udp%3A%2F%2Ftracker.coppersurfer.tk%3A6969","udp%3A%2F%2Fexodus.desync.com%3A6969"],"infoHash":"0cf17bb4f26885d46a8a27794f15d0b339fa8f6f","infoHashBuffer":{"type":"Buffer","data":[12,241,123,180,242,104,133,212,106,138,39,121,79,21,208,179,57,250,143,111]},"announce":[],"urlList":[]}}